<mxfile host="app.diagrams.net" modified="2023-07-10T11:36:00.957Z" agent="Mozilla/5.0 (Windows NT 10.0; Win64; x64) AppleWebKit/537.36 (KHTML, like Gecko) Chrome/114.0.0.0 Safari/537.36" etag="vhbsf54HodVSXVhtsDwK" version="21.6.1" type="device">
  <diagram name="Page-1" id="1YRHAizjSWOm0qdDqU5r">
    <mxGraphModel dx="659" dy="318" grid="1" gridSize="10" guides="1" tooltips="1" connect="1" arrows="1" fold="1" page="1" pageScale="1" pageWidth="827" pageHeight="1169" math="0" shadow="0">
      <root>
        <mxCell id="0" />
        <mxCell id="1" parent="0" />
        <mxCell id="IRHucIBJhyLnKCHNsG0P-1" value="&lt;font face=&quot;computer modern&quot; style=&quot;font-size: 11px;&quot; data-font-src=&quot;https://fonts.googleapis.com/css?family=computer+modern&quot;&gt;Maître I2C&lt;/font&gt;" style="rounded=1;whiteSpace=wrap;html=1;" parent="1" vertex="1">
          <mxGeometry x="230" y="269" width="90" height="41" as="geometry" />
        </mxCell>
        <mxCell id="IRHucIBJhyLnKCHNsG0P-4" value="" style="rounded=0;whiteSpace=wrap;html=1;" parent="1" vertex="1">
          <mxGeometry x="460" y="100" width="100" height="290" as="geometry" />
        </mxCell>
        <mxCell id="IRHucIBJhyLnKCHNsG0P-5" value="&lt;font face=&quot;computer modern&quot; style=&quot;font-size: 11px;&quot; data-font-src=&quot;https://fonts.googleapis.com/css?family=computer+modern&quot;&gt;Chargeur de&lt;br&gt;démarrage&lt;br&gt;&lt;/font&gt;" style="rounded=0;whiteSpace=wrap;html=1;fillColor=#f5f5f5;fontColor=#333333;strokeColor=#666666;" parent="1" vertex="1">
          <mxGeometry x="460" y="340" width="100" height="50" as="geometry" />
        </mxCell>
        <mxCell id="IRHucIBJhyLnKCHNsG0P-6" value="&lt;font face=&quot;computer modern&quot; style=&quot;font-size: 11px;&quot; data-font-src=&quot;https://fonts.googleapis.com/css?family=computer+modern&quot;&gt;Entête courante&lt;/font&gt;" style="rounded=0;whiteSpace=wrap;html=1;fillColor=#f5f5f5;fontColor=#333333;strokeColor=#666666;" parent="1" vertex="1">
          <mxGeometry x="460" y="310" width="100" height="30" as="geometry" />
        </mxCell>
        <mxCell id="IRHucIBJhyLnKCHNsG0P-7" value="&lt;font style=&quot;font-size: 11px;&quot; data-font-src=&quot;https://fonts.googleapis.com/css?family=computer+modern&quot; face=&quot;computer modern&quot;&gt;&lt;span style=&quot;font-size: 11px;&quot;&gt;Micrologiciel&lt;br&gt;&lt;/span&gt;courant&lt;/font&gt;" style="rounded=0;whiteSpace=wrap;html=1;fillColor=#f5f5f5;fontColor=#333333;strokeColor=#666666;" parent="1" vertex="1">
          <mxGeometry x="460" y="250" width="100" height="60" as="geometry" />
        </mxCell>
        <mxCell id="IRHucIBJhyLnKCHNsG0P-9" value="&lt;font style=&quot;font-size: 11px;&quot; data-font-src=&quot;https://fonts.googleapis.com/css?family=computer+modern&quot; face=&quot;computer modern&quot;&gt;&lt;span style=&quot;font-size: 11px;&quot;&gt;Nouveau&lt;br&gt;&lt;/span&gt;micrologiciel&lt;/font&gt;" style="rounded=0;whiteSpace=wrap;html=1;fillColor=#f5f5f5;fontColor=#333333;strokeColor=#666666;" parent="1" vertex="1">
          <mxGeometry x="460" y="120" width="100" height="60" as="geometry" />
        </mxCell>
        <mxCell id="IRHucIBJhyLnKCHNsG0P-10" value="" style="endArrow=classic;html=1;rounded=0;exitX=1;exitY=0.5;exitDx=0;exitDy=0;entryX=-0.001;entryY=0.66;entryDx=0;entryDy=0;entryPerimeter=0;" parent="1" source="IRHucIBJhyLnKCHNsG0P-1" target="IRHucIBJhyLnKCHNsG0P-7" edge="1">
          <mxGeometry width="50" height="50" relative="1" as="geometry">
            <mxPoint x="370" y="270" as="sourcePoint" />
            <mxPoint x="400" y="290" as="targetPoint" />
          </mxGeometry>
        </mxCell>
        <mxCell id="IRHucIBJhyLnKCHNsG0P-18" value="&lt;pre style=&quot;border-color: var(--border-color); line-height: 11px; font-size: 11px;&quot;&gt;&lt;font data-font-src=&quot;https://fonts.googleapis.com/css?family=computer+modern&quot; face=&quot;computer modern&quot;&gt;&lt;font style=&quot;border-color: var(--border-color);&quot; data-font-src=&quot;https://fonts.googleapis.com/css?family=asap&quot;&gt;Ecriture de chaque&lt;br&gt;morceau du nouveau &lt;span style=&quot;white-space: normal;&quot;&gt;micrologiciel depuis le micrologiciel courant&lt;/span&gt;&lt;/font&gt;&lt;/font&gt;&lt;/pre&gt;" style="text;html=1;strokeColor=none;fillColor=none;align=left;verticalAlign=middle;whiteSpace=wrap;rounded=0;" parent="1" vertex="1">
          <mxGeometry x="280" y="140" width="120" height="50" as="geometry" />
        </mxCell>
        <mxCell id="IRHucIBJhyLnKCHNsG0P-19" value="&lt;pre style=&quot;border-color: var(--border-color); line-height: 11px;&quot;&gt;&lt;font style=&quot;&quot; face=&quot;computer modern&quot;&gt;&lt;span style=&quot;font-size: 11px;&quot;&gt;Schéma mémoire&lt;br/&gt;du microcontrôleur &lt;/span&gt;&lt;/font&gt;&lt;/pre&gt;" style="text;html=1;strokeColor=none;fillColor=none;align=center;verticalAlign=middle;whiteSpace=wrap;rounded=0;" parent="1" vertex="1">
          <mxGeometry x="460" y="70" width="100" height="30" as="geometry" />
        </mxCell>
        <mxCell id="dITgritqWHBolw29e6AS-1" value="&lt;font face=&quot;computer modern&quot; style=&quot;font-size: 11px;&quot; data-font-src=&quot;https://fonts.googleapis.com/css?family=computer+modern&quot;&gt;Nouvel entête&lt;/font&gt;" style="rounded=0;whiteSpace=wrap;html=1;fillColor=#f5f5f5;fontColor=#333333;strokeColor=#666666;" vertex="1" parent="1">
          <mxGeometry x="460" y="180" width="100" height="30" as="geometry" />
        </mxCell>
        <mxCell id="dITgritqWHBolw29e6AS-3" value="" style="endArrow=classic;html=1;rounded=0;entryX=0;entryY=0.75;entryDx=0;entryDy=0;exitX=0;exitY=0.5;exitDx=0;exitDy=0;edgeStyle=orthogonalEdgeStyle;curved=1;" edge="1" parent="1" source="IRHucIBJhyLnKCHNsG0P-7" target="dITgritqWHBolw29e6AS-1">
          <mxGeometry width="50" height="50" relative="1" as="geometry">
            <mxPoint x="380" y="220" as="sourcePoint" />
            <mxPoint x="470" y="198" as="targetPoint" />
            <Array as="points">
              <mxPoint x="440" y="280" />
              <mxPoint x="440" y="202" />
            </Array>
          </mxGeometry>
        </mxCell>
        <mxCell id="dITgritqWHBolw29e6AS-6" value="" style="endArrow=classic;html=1;rounded=0;entryX=0;entryY=0.25;entryDx=0;entryDy=0;exitX=0;exitY=0.5;exitDx=0;exitDy=0;edgeStyle=orthogonalEdgeStyle;curved=1;" edge="1" parent="1" source="IRHucIBJhyLnKCHNsG0P-7" target="dITgritqWHBolw29e6AS-1">
          <mxGeometry width="50" height="50" relative="1" as="geometry">
            <mxPoint x="470" y="290" as="sourcePoint" />
            <mxPoint x="470" y="213" as="targetPoint" />
            <Array as="points">
              <mxPoint x="440" y="280" />
              <mxPoint x="440" y="188" />
            </Array>
          </mxGeometry>
        </mxCell>
        <mxCell id="dITgritqWHBolw29e6AS-7" value="" style="endArrow=classic;html=1;rounded=0;entryX=-0.004;entryY=0.896;entryDx=0;entryDy=0;exitX=0;exitY=0.5;exitDx=0;exitDy=0;edgeStyle=orthogonalEdgeStyle;curved=1;entryPerimeter=0;" edge="1" parent="1" source="IRHucIBJhyLnKCHNsG0P-7" target="IRHucIBJhyLnKCHNsG0P-9">
          <mxGeometry width="50" height="50" relative="1" as="geometry">
            <mxPoint x="470" y="290" as="sourcePoint" />
            <mxPoint x="470" y="198" as="targetPoint" />
            <Array as="points">
              <mxPoint x="440" y="280" />
              <mxPoint x="440" y="174" />
              <mxPoint x="460" y="174" />
            </Array>
          </mxGeometry>
        </mxCell>
        <mxCell id="dITgritqWHBolw29e6AS-8" value="" style="endArrow=classic;html=1;rounded=0;entryX=-0.001;entryY=0.696;entryDx=0;entryDy=0;exitX=0;exitY=0.5;exitDx=0;exitDy=0;edgeStyle=orthogonalEdgeStyle;curved=1;entryPerimeter=0;" edge="1" parent="1" source="IRHucIBJhyLnKCHNsG0P-7" target="IRHucIBJhyLnKCHNsG0P-9">
          <mxGeometry width="50" height="50" relative="1" as="geometry">
            <mxPoint x="470" y="290" as="sourcePoint" />
            <mxPoint x="469" y="184" as="targetPoint" />
            <Array as="points">
              <mxPoint x="440" y="280" />
              <mxPoint x="440" y="162" />
            </Array>
          </mxGeometry>
        </mxCell>
        <mxCell id="dITgritqWHBolw29e6AS-9" value="" style="endArrow=classic;html=1;rounded=0;edgeStyle=orthogonalEdgeStyle;curved=1;" edge="1" parent="1">
          <mxGeometry width="50" height="50" relative="1" as="geometry">
            <mxPoint x="460" y="280" as="sourcePoint" />
            <mxPoint x="460" y="150" as="targetPoint" />
            <Array as="points">
              <mxPoint x="440" y="280" />
              <mxPoint x="440" y="150" />
            </Array>
          </mxGeometry>
        </mxCell>
        <mxCell id="dITgritqWHBolw29e6AS-10" value="" style="endArrow=classic;html=1;rounded=0;edgeStyle=orthogonalEdgeStyle;curved=1;entryX=-0.004;entryY=0.289;entryDx=0;entryDy=0;entryPerimeter=0;" edge="1" parent="1" target="IRHucIBJhyLnKCHNsG0P-9">
          <mxGeometry width="50" height="50" relative="1" as="geometry">
            <mxPoint x="460" y="280" as="sourcePoint" />
            <mxPoint x="470" y="160" as="targetPoint" />
            <Array as="points">
              <mxPoint x="440" y="280" />
              <mxPoint x="440" y="137" />
            </Array>
          </mxGeometry>
        </mxCell>
        <mxCell id="dITgritqWHBolw29e6AS-11" value="" style="endArrow=classic;html=1;rounded=0;edgeStyle=orthogonalEdgeStyle;curved=1;entryX=-0.005;entryY=0.088;entryDx=0;entryDy=0;entryPerimeter=0;exitX=0;exitY=0.5;exitDx=0;exitDy=0;" edge="1" parent="1" source="IRHucIBJhyLnKCHNsG0P-7" target="IRHucIBJhyLnKCHNsG0P-9">
          <mxGeometry width="50" height="50" relative="1" as="geometry">
            <mxPoint x="470" y="290" as="sourcePoint" />
            <mxPoint x="470" y="147" as="targetPoint" />
            <Array as="points">
              <mxPoint x="440" y="280" />
              <mxPoint x="440" y="125" />
            </Array>
          </mxGeometry>
        </mxCell>
        <mxCell id="dITgritqWHBolw29e6AS-13" value="&lt;pre style=&quot;border-color: var(--border-color); line-height: 11px; font-size: 11px;&quot;&gt;&lt;font face=&quot;computer modern&quot;&gt;Envoi de chaque morceau&lt;br&gt;successivement&lt;/font&gt;&lt;/pre&gt;" style="text;html=1;strokeColor=none;fillColor=none;align=left;verticalAlign=middle;whiteSpace=wrap;rounded=0;" vertex="1" parent="1">
          <mxGeometry x="325" y="280" width="120" height="50" as="geometry" />
        </mxCell>
      </root>
    </mxGraphModel>
  </diagram>
</mxfile>
